<svg width="20" height="20" viewBox="0 0 20 20" fill="none" xmlns="http://www.w3.org/2000/svg">
<path fill-rule="evenodd" clip-rule="evenodd" d="M10.0003 1.04169C7.8142 1.04169 6.04199 2.81389 6.04199 5.00002C6.04199 7.18615 7.8142 8.95835 10.0003 8.95835C12.1865 8.95835 13.9587 7.18615 13.9587 5.00002C13.9587 2.81389 12.1865 1.04169 10.0003 1.04169ZM7.29199 5.00002C7.29199 3.50425 8.50455 2.29169 10.0003 2.29169C11.4961 2.29169 12.7087 3.50425 12.7087 5.00002C12.7087 6.49579 11.4961 7.70835 10.0003 7.70835C8.50455 7.70835 7.29199 6.49579 7.29199 5.00002Z" fill="#121212" fill-opacity="0.6"/>
<path fill-rule="evenodd" clip-rule="evenodd" d="M10.0003 10.2084C8.30088 10.2084 6.73159 10.6006 5.56545 11.267C4.41699 11.9233 3.54199 12.9251 3.54199 14.1667C3.54199 15.4082 4.41699 16.4101 5.56545 17.0664C6.73159 17.7327 8.30088 18.125 10.0003 18.125C11.6998 18.125 13.2691 17.7327 14.4352 17.0664C15.5837 16.4101 16.4587 15.4082 16.4587 14.1667C16.4587 12.9251 15.5837 11.9233 14.4352 11.267C13.2691 10.6006 11.6998 10.2084 10.0003 10.2084ZM4.79199 14.1667C4.79199 13.5673 5.22283 12.9025 6.18562 12.3523C7.13073 11.8123 8.47811 11.4584 10.0003 11.4584C11.5225 11.4584 12.8699 11.8123 13.815 12.3523C14.7778 12.9025 15.2087 13.5673 15.2087 14.1667C15.2087 14.7661 14.7778 15.4309 13.815 15.9811C12.8699 16.5211 11.5225 16.875 10.0003 16.875C8.47811 16.875 7.13073 16.5211 6.18562 15.9811C5.22283 15.4309 4.79199 14.7661 4.79199 14.1667Z" fill="#121212" fill-opacity="0.6"/>
</svg>
