<svg width="20" height="20" viewBox="0 0 20 20" fill="none" xmlns="http://www.w3.org/2000/svg">
<path fill-rule="evenodd" clip-rule="evenodd" d="M8.28616 2.70834H11.7135C13.245 2.70833 14.458 2.70832 15.4074 2.83596C16.3844 2.96731 17.1752 3.24408 17.7988 3.86771C18.4224 4.49135 18.6992 5.28214 18.8306 6.25916C18.9582 7.2085 18.9582 8.42153 18.9582 9.953V10.047C18.9582 11.5785 18.9582 12.7915 18.8306 13.7409C18.6992 14.7179 18.4224 15.5087 17.7988 16.1323C17.1752 16.7559 16.3844 17.0327 15.4074 17.1641C14.458 17.2917 13.245 17.2917 11.7135 17.2917H8.28616C6.75469 17.2917 5.54166 17.2917 4.59232 17.1641C3.6153 17.0327 2.82451 16.7559 2.20087 16.1323C1.57724 15.5087 1.30047 14.7179 1.16912 13.7409C1.04148 12.7915 1.04149 11.5785 1.0415 10.047V9.953C1.04149 8.42153 1.04148 7.2085 1.16912 6.25916C1.30047 5.28214 1.57724 4.49135 2.20087 3.86771C2.82451 3.24408 3.6153 2.96731 4.59232 2.83596C5.54166 2.70832 6.75469 2.70833 8.28616 2.70834ZM4.75888 4.07481C3.92047 4.18753 3.43743 4.39892 3.08476 4.7516C2.73208 5.10427 2.52069 5.58731 2.40797 6.42572C2.29283 7.2821 2.2915 8.41099 2.2915 10C2.2915 11.589 2.29283 12.7179 2.40797 13.5743C2.52069 14.4127 2.73208 14.8958 3.08476 15.2484C3.43743 15.6011 3.92047 15.8125 4.75888 15.9252C5.61526 16.0403 6.74415 16.0417 8.33317 16.0417H11.6665C13.2555 16.0417 14.3844 16.0403 15.2408 15.9252C16.0792 15.8125 16.5622 15.6011 16.9149 15.2484C17.2676 14.8958 17.479 14.4127 17.5917 13.5743C17.7068 12.7179 17.7082 11.589 17.7082 10C17.7082 8.41099 17.7068 7.2821 17.5917 6.42572C17.479 5.58731 17.2676 5.10427 16.9149 4.7516C16.5622 4.39892 16.0792 4.18753 15.2408 4.07481C14.3844 3.95967 13.2555 3.95834 11.6665 3.95834H8.33317C6.74415 3.95834 5.61526 3.95967 4.75888 4.07481ZM4.5197 6.26656C4.74068 6.00139 5.13478 5.96556 5.39995 6.18654L7.19903 7.68577C7.9765 8.33366 8.51628 8.78202 8.97199 9.07512C9.41312 9.35884 9.71228 9.45407 9.99984 9.45407C10.2874 9.45407 10.5866 9.35884 11.0277 9.07512C11.4834 8.78202 12.0232 8.33366 12.8006 7.68577L14.5997 6.18654C14.8649 5.96556 15.259 6.00139 15.48 6.26656C15.701 6.53173 15.6651 6.92584 15.4 7.14682L13.5695 8.67216C12.8309 9.2877 12.2322 9.78661 11.7039 10.1264C11.1534 10.4805 10.6174 10.7041 9.99984 10.7041C9.38227 10.7041 8.84623 10.4804 8.29582 10.1264C7.76744 9.78661 7.16877 9.28771 6.43014 8.67216L4.59972 7.14682C4.33455 6.92584 4.29872 6.53173 4.5197 6.26656Z" fill="white"/>
</svg>
