<svg width="46" height="46" viewBox="0 0 46 46" fill="none" xmlns="http://www.w3.org/2000/svg">
<circle cx="22.5136" cy="23.1635" r="21.7636" stroke="white" stroke-width="1.5"/>
<path fill-rule="evenodd" clip-rule="evenodd" d="M12.0605 22.5559C12.0605 27.6151 15.7349 31.8219 20.5405 32.675V25.3255H17.9965V22.4991H20.5405V20.2375C20.5405 17.6936 22.1796 16.2808 24.498 16.2808C25.2324 16.2808 26.0244 16.3936 26.7588 16.5064V19.1072H25.4588C24.2148 19.1072 23.9324 19.7287 23.9324 20.5208V22.4991H26.646L26.194 25.3255H23.9324V32.675C28.738 31.8219 32.4123 27.6159 32.4123 22.5559C32.4123 16.9278 27.8332 12.3232 22.2364 12.3232C16.6397 12.3232 12.0605 16.9278 12.0605 22.5559Z" fill="white"/>
</svg>
