<svg width="33" height="42" viewBox="0 0 33 42" fill="none" xmlns="http://www.w3.org/2000/svg">
<path d="M16.5 24C15.0166 24 13.5666 23.5601 12.3332 22.736C11.0999 21.9119 10.1386 20.7406 9.57091 19.3701C9.00325 17.9997 8.85472 16.4917 9.14411 15.0368C9.4335 13.582 10.1478 12.2456 11.1967 11.1967C12.2456 10.1478 13.582 9.4335 15.0368 9.14411C16.4917 8.85472 17.9997 9.00325 19.3701 9.57091C20.7406 10.1386 21.9119 11.0999 22.736 12.3332C23.5601 13.5666 24 15.0166 24 16.5C23.9976 18.4884 23.2067 20.3947 21.8007 21.8007C20.3947 23.2067 18.4884 23.9976 16.5 24ZM16.5 12C15.61 12 14.74 12.2639 13.9999 12.7584C13.2599 13.2529 12.6831 13.9557 12.3425 14.7779C12.0019 15.6002 11.9128 16.505 12.0865 17.3779C12.2601 18.2508 12.6887 19.0526 13.318 19.682C13.9474 20.3113 14.7492 20.7399 15.6221 20.9135C16.495 21.0872 17.3998 20.998 18.2221 20.6575C19.0443 20.3169 19.7471 19.7401 20.2416 19.0001C20.7361 18.26 21 17.39 21 16.5C20.9988 15.3069 20.5243 14.163 19.6807 13.3193C18.837 12.4757 17.6931 12.0012 16.5 12Z" fill="#29ABE2"/>
<path d="M16.5 42L3.84601 27.0765C3.67019 26.8524 3.49618 26.6269 3.32401 26.4C1.16249 23.5526 -0.00522178 20.0748 1.75543e-05 16.5C1.75543e-05 12.1239 1.7384 7.92708 4.83275 4.83273C7.9271 1.73839 12.1239 0 16.5 0C20.8761 0 25.0729 1.73839 28.1673 4.83273C31.2616 7.92708 33 12.1239 33 16.5C33.0052 20.0732 31.838 23.5494 29.6775 26.3955L29.676 26.4C29.676 26.4 29.226 26.991 29.1585 27.0705L16.5 42ZM5.71951 24.5925C5.71951 24.5925 6.06901 25.0545 6.14851 25.1535L16.5 37.362L26.865 25.137C26.931 25.0545 27.282 24.5895 27.2835 24.588C29.0492 22.2616 30.0035 19.4205 30 16.5C30 12.9196 28.5777 9.48579 26.0459 6.95405C23.5142 4.42231 20.0804 3 16.5 3C12.9196 3 9.48581 4.42231 6.95407 6.95405C4.42233 9.48579 3.00001 12.9196 3.00001 16.5C2.99687 19.4223 3.95218 22.2651 5.71951 24.5925Z" fill="#29ABE2"/>
</svg>
