<svg width="46" height="46" viewBox="0 0 46 46" fill="none" xmlns="http://www.w3.org/2000/svg">
<circle cx="24.2724" cy="22.5136" r="21.7636" stroke="white" stroke-width="1.5"/>
<path d="M32.4702 22.5546C32.4702 22.5086 32.4702 22.4564 32.4681 22.3959C32.466 22.2267 32.4618 22.0367 32.4576 21.8342C32.4408 21.2516 32.4113 20.6712 32.3651 20.1241C32.302 19.3704 32.2094 18.7419 32.0832 18.27C31.9501 17.7775 31.689 17.3284 31.3263 16.9675C30.9635 16.6066 30.5116 16.3465 30.0158 16.2133C29.4206 16.0546 28.2555 15.9565 26.615 15.8959C25.8348 15.8667 24.9998 15.8479 24.1649 15.8375C23.8725 15.8333 23.6012 15.8312 23.3573 15.8291H22.7389C22.495 15.8312 22.2237 15.8333 21.9313 15.8375C21.0964 15.8479 20.2614 15.8667 19.4812 15.8959C17.8407 15.9586 16.6734 16.0567 16.0804 16.2133C15.5844 16.3462 15.1324 16.6061 14.7696 16.9671C14.4067 17.3281 14.1458 17.7774 14.013 18.27C13.8847 18.7419 13.7942 19.3704 13.7311 20.1241C13.6849 20.6712 13.6554 21.2516 13.6386 21.8342C13.6323 22.0367 13.6302 22.2267 13.6281 22.3959C13.6281 22.4564 13.626 22.5086 13.626 22.5546V22.6715C13.626 22.7174 13.626 22.7696 13.6281 22.8302C13.6302 22.9993 13.6344 23.1893 13.6386 23.3919C13.6554 23.9744 13.6849 24.5549 13.7311 25.1019C13.7942 25.8557 13.8868 26.4842 14.013 26.9561C14.2822 27.9562 15.0729 28.7455 16.0804 29.0128C16.6734 29.1714 17.8407 29.2696 19.4812 29.3301C20.2614 29.3594 21.0964 29.3782 21.9313 29.3886C22.2237 29.3928 22.495 29.3949 22.7389 29.397H23.3573C23.6012 29.3949 23.8725 29.3928 24.1649 29.3886C24.9998 29.3782 25.8348 29.3594 26.615 29.3301C28.2555 29.2675 29.4227 29.1694 30.0158 29.0128C31.0232 28.7455 31.814 27.9583 32.0832 26.9561C32.2115 26.4842 32.302 25.8557 32.3651 25.1019C32.4113 24.5549 32.4408 23.9744 32.4576 23.3919C32.4639 23.1893 32.466 22.9993 32.4681 22.8302C32.4681 22.7696 32.4702 22.7174 32.4702 22.6715V22.5546ZM30.9559 22.6631C30.9559 22.707 30.9559 22.755 30.9538 22.8114C30.9517 22.9743 30.9475 23.1538 30.9433 23.348C30.9286 23.9034 30.8992 24.4588 30.855 24.9746C30.7982 25.6469 30.7183 26.1981 30.6194 26.5677C30.489 27.05 30.1063 27.4321 29.6225 27.5595C29.1809 27.6764 28.0683 27.7704 26.5562 27.8268C25.7906 27.856 24.9662 27.8748 24.1438 27.8852C23.8557 27.8894 23.5886 27.8915 23.3488 27.8915H22.7473L21.9524 27.8852C21.13 27.8748 20.3077 27.856 19.54 27.8268C18.0279 27.7683 16.9132 27.6764 16.4736 27.5595C15.9899 27.4301 15.6071 27.05 15.4768 26.5677C15.3779 26.1981 15.298 25.6469 15.2412 24.9746C15.197 24.4588 15.1697 23.9034 15.1529 23.348C15.1466 23.1538 15.1445 22.9722 15.1423 22.8114C15.1423 22.755 15.1402 22.7049 15.1402 22.6631V22.5629C15.1402 22.5191 15.1402 22.471 15.1423 22.4147C15.1445 22.2518 15.1487 22.0722 15.1529 21.878C15.1676 21.3226 15.197 20.7672 15.2412 20.2515C15.298 19.5792 15.3779 19.0279 15.4768 18.6583C15.6071 18.176 15.9899 17.7939 16.4736 17.6665C16.9153 17.5496 18.0279 17.4557 19.54 17.3993C20.3056 17.37 21.13 17.3513 21.9524 17.3408C22.2405 17.3366 22.5076 17.3346 22.7473 17.3346H23.3488L24.1438 17.3408C24.9662 17.3513 25.7885 17.37 26.5562 17.3993C28.0683 17.4577 29.183 17.5496 29.6225 17.6665C30.1063 17.796 30.489 18.176 30.6194 18.6583C30.7183 19.0279 30.7982 19.5792 30.855 20.2515C30.8992 20.7672 30.9265 21.3226 30.9433 21.878C30.9496 22.0722 30.9517 22.2539 30.9538 22.4147C30.9538 22.471 30.9559 22.5212 30.9559 22.5629V22.6631ZM21.1763 25.411L26.0556 22.5921L21.1763 19.8151V25.411Z" fill="white"/>
</svg>
