<svg width="46" height="46" viewBox="0 0 46 46" fill="none" xmlns="http://www.w3.org/2000/svg">
<circle cx="23.4863" cy="22.8388" r="21.7636" stroke="white" stroke-width="1.5"/>
<path fill-rule="evenodd" clip-rule="evenodd" d="M20.0328 15.626C20.7964 15.5908 21.0399 15.583 22.985 15.583C24.9302 15.583 25.1736 15.5915 25.9366 15.626C26.6995 15.6605 27.2203 15.7822 27.676 15.9586C28.1532 16.1389 28.5861 16.4208 28.9441 16.7854C29.3087 17.1428 29.5899 17.575 29.7696 18.0528C29.9466 18.5085 30.0677 19.0293 30.1029 19.791C30.138 20.5559 30.1458 20.7993 30.1458 22.7438C30.1458 24.689 30.1374 24.9324 30.1029 25.696C30.0684 26.4577 29.9466 26.9785 29.7696 27.4341C29.5899 27.912 29.3082 28.345 28.9441 28.7029C28.5861 29.0675 28.1532 29.3487 27.676 29.5284C27.2203 29.7054 26.6995 29.8265 25.9379 29.8617C25.1736 29.8968 24.9302 29.9046 22.985 29.9046C21.0399 29.9046 20.7964 29.8962 20.0328 29.8617C19.2712 29.8272 18.7504 29.7054 18.2947 29.5284C17.8168 29.3487 17.3839 29.067 17.0259 28.7029C16.6616 28.3453 16.3797 27.9125 16.1998 27.4348C16.0234 26.9791 15.9023 26.4583 15.8672 25.6967C15.832 24.9318 15.8242 24.6883 15.8242 22.7438C15.8242 20.7987 15.8327 20.5552 15.8672 19.7923C15.9017 19.0293 16.0234 18.5085 16.1998 18.0528C16.38 17.5751 16.6621 17.1423 17.0266 16.7847C17.384 16.4205 17.8165 16.1386 18.294 15.9586C18.7497 15.7822 19.2705 15.6611 20.0322 15.626H20.0328ZM25.8786 16.9149C25.1235 16.8804 24.897 16.8733 22.985 16.8733C21.0731 16.8733 20.8466 16.8804 20.0914 16.9149C19.3929 16.9468 19.014 17.0633 18.7615 17.1616C18.4275 17.2918 18.1886 17.4461 17.938 17.6967C17.7004 17.9279 17.5175 18.2093 17.4029 18.5202C17.3046 18.7728 17.188 19.1517 17.1561 19.8502C17.1216 20.6053 17.1145 20.8319 17.1145 22.7438C17.1145 24.6558 17.1216 24.8823 17.1561 25.6374C17.188 26.3359 17.3046 26.7148 17.4029 26.9674C17.5174 27.2779 17.7004 27.5598 17.938 27.7909C18.1691 28.0285 18.4509 28.2114 18.7615 28.326C19.014 28.4243 19.3929 28.5408 20.0914 28.5727C20.8466 28.6072 21.0724 28.6144 22.985 28.6144C24.8976 28.6144 25.1235 28.6072 25.8786 28.5727C26.5772 28.5408 26.956 28.4243 27.2086 28.326C27.5426 28.1958 27.7815 28.0415 28.0321 27.7909C28.2697 27.5598 28.4526 27.2779 28.5672 26.9674C28.6655 26.7148 28.782 26.3359 28.8139 25.6374C28.8484 24.8823 28.8556 24.6558 28.8556 22.7438C28.8556 20.8319 28.8484 20.6053 28.8139 19.8502C28.782 19.1517 28.6655 18.7728 28.5672 18.5202C28.437 18.1863 28.2827 17.9474 28.0321 17.6967C27.801 17.4592 27.5196 17.2764 27.2086 17.1616C26.956 17.0633 26.5772 16.9468 25.8786 16.9149ZM22.0704 24.9513C22.5812 25.1639 23.15 25.1926 23.6796 25.0325C24.2092 24.8724 24.6668 24.5333 24.9742 24.0733C25.2816 23.6133 25.4197 23.0608 25.3651 22.5102C25.3104 21.9596 25.0662 21.4451 24.6743 21.0545C24.4245 20.8049 24.1224 20.6137 23.7899 20.4948C23.4573 20.3759 23.1025 20.3322 22.751 20.3668C22.3995 20.4015 22.0601 20.5137 21.7571 20.6953C21.4542 20.8769 21.1953 21.1234 20.9991 21.417C20.8028 21.7107 20.6742 22.0442 20.6223 22.3936C20.5704 22.7429 20.5967 23.0994 20.6991 23.4375C20.8016 23.7755 20.9777 24.0865 21.2148 24.3483C21.4519 24.6101 21.7441 24.816 22.0704 24.9513ZM20.3824 20.1412C20.7242 19.7994 21.1299 19.5283 21.5765 19.3433C22.0231 19.1583 22.5017 19.0631 22.985 19.0631C23.4684 19.0631 23.947 19.1583 24.3936 19.3433C24.8401 19.5283 25.2459 19.7994 25.5877 20.1412C25.9294 20.483 26.2006 20.8887 26.3855 21.3353C26.5705 21.7818 26.6657 22.2605 26.6657 22.7438C26.6657 23.2272 26.5705 23.7058 26.3855 24.1524C26.2006 24.5989 25.9294 25.0047 25.5877 25.3464C24.8974 26.0367 23.9612 26.4245 22.985 26.4245C22.0089 26.4245 21.0727 26.0367 20.3824 25.3464C19.6921 24.6562 19.3044 23.72 19.3044 22.7438C19.3044 21.7676 19.6921 20.8314 20.3824 20.1412ZM27.482 19.6113C27.5667 19.5314 27.6345 19.4353 27.6814 19.3287C27.7283 19.2222 27.7534 19.1073 27.7551 18.9909C27.7567 18.8744 27.7351 18.7589 27.6913 18.651C27.6475 18.5431 27.5826 18.4451 27.5002 18.3627C27.4179 18.2804 27.3199 18.2154 27.212 18.1717C27.1041 18.1279 26.9885 18.1062 26.8721 18.1079C26.7557 18.1096 26.6408 18.1346 26.5342 18.1815C26.4276 18.2284 26.3316 18.2962 26.2517 18.3809C26.0963 18.5456 26.0112 18.7644 26.0145 18.9909C26.0178 19.2173 26.1092 19.4335 26.2693 19.5936C26.4295 19.7537 26.6457 19.8451 26.8721 19.8484C27.0985 19.8517 27.3173 19.7667 27.482 19.6113Z" fill="white"/>
</svg>
