<svg width="245" height="48" viewBox="0 0 245 48" fill="none" xmlns="http://www.w3.org/2000/svg">
<circle cx="22.5136" cy="25.1636" r="21.7636" stroke="white" stroke-width="1.5"/>
<path fill-rule="evenodd" clip-rule="evenodd" d="M12.0605 24.5558C12.0605 29.6149 15.7349 33.8218 20.5405 34.6749V27.3253H17.9965V24.499H20.5405V22.2374C20.5405 19.6934 22.1796 18.2807 24.498 18.2807C25.2324 18.2807 26.0244 18.3935 26.7588 18.5062V21.107H25.4588C24.2148 21.107 23.9324 21.7286 23.9324 22.5206V24.499H26.646L26.194 27.3253H23.9324V34.6749C28.738 33.8218 32.4123 29.6158 32.4123 24.5558C32.4123 18.9277 27.8332 14.3231 22.2364 14.3231C16.6397 14.3231 12.0605 18.9277 12.0605 24.5558Z" fill="white"/>
<circle cx="90.0527" cy="23.8386" r="21.7636" stroke="white" stroke-width="1.5"/>
<path fill-rule="evenodd" clip-rule="evenodd" d="M82.1611 17.1516C82.1611 16.8009 82.2938 16.4645 82.53 16.2165C82.7662 15.9685 83.0866 15.8292 83.4206 15.8292H95.9757C96.1412 15.8289 96.3052 15.8629 96.4582 15.9292C96.6112 15.9956 96.7502 16.0929 96.8673 16.2158C96.9845 16.3386 97.0774 16.4845 97.1407 16.6451C97.2041 16.8057 97.2366 16.9778 97.2365 17.1516V30.3344C97.2367 30.5083 97.2042 30.6805 97.141 30.8411C97.0777 31.0018 96.9849 31.1478 96.8679 31.2707C96.7508 31.3937 96.6118 31.4912 96.4589 31.5577C96.3059 31.6242 96.1419 31.6584 95.9764 31.6583H83.4206C83.2552 31.6583 83.0913 31.6241 82.9385 31.5576C82.7856 31.4911 82.6467 31.3936 82.5298 31.2707C82.4128 31.1479 82.3201 31.002 82.2568 30.8414C82.1936 30.6809 82.161 30.5089 82.1611 30.3351V17.1516ZM88.1282 21.8644H90.1696V22.9408C90.4642 22.322 91.218 21.7651 92.3507 21.7651C94.5223 21.7651 95.0369 22.9976 95.0369 25.259V29.448H92.8393V25.7742C92.8393 24.4863 92.5447 23.7596 91.7964 23.7596C90.7582 23.7596 90.3265 24.5431 90.3265 25.7742V29.448H88.1282V21.8644ZM84.3594 29.3494H86.5577V21.7651H84.3594V29.3487V29.3494ZM86.8722 19.2914C86.8763 19.4891 86.8428 19.6856 86.7737 19.8694C86.7045 20.0533 86.6011 20.2208 86.4694 20.3621C86.3378 20.5034 86.1806 20.6157 86.007 20.6923C85.8335 20.769 85.6471 20.8085 85.4589 20.8085C85.2706 20.8085 85.0842 20.769 84.9107 20.6923C84.7372 20.6157 84.58 20.5034 84.4483 20.3621C84.3167 20.2208 84.2132 20.0533 84.1441 19.8694C84.0749 19.6856 84.0414 19.4891 84.0456 19.2914C84.0537 18.9035 84.2062 18.5344 84.4703 18.263C84.7345 17.9917 85.0893 17.8398 85.4589 17.8398C85.8284 17.8398 86.1833 17.9917 86.4474 18.263C86.7116 18.5344 86.8641 18.9035 86.8722 19.2914V19.2914Z" fill="white"/>
<circle cx="222.486" cy="23.8386" r="21.7636" stroke="white" stroke-width="1.5"/>
<path fill-rule="evenodd" clip-rule="evenodd" d="M219.033 16.6259C219.796 16.5907 220.04 16.5829 221.985 16.5829C223.93 16.5829 224.174 16.5914 224.937 16.6259C225.7 16.6604 226.22 16.7821 226.676 16.9585C227.153 17.1389 227.586 17.4207 227.944 17.7853C228.309 18.1427 228.59 18.5749 228.77 19.0528C228.947 19.5084 229.068 20.0292 229.103 20.7909C229.138 21.5558 229.146 21.7993 229.146 23.7437C229.146 25.6889 229.137 25.9323 229.103 26.6959C229.068 27.4576 228.947 27.9784 228.77 28.4341C228.59 28.912 228.308 29.3449 227.944 29.7028C227.586 30.0674 227.153 30.3486 226.676 30.5283C226.22 30.7054 225.7 30.8264 224.938 30.8616C224.174 30.8967 223.93 30.9046 221.985 30.9046C220.04 30.9046 219.796 30.8961 219.033 30.8616C218.271 30.8271 217.75 30.7054 217.295 30.5283C216.817 30.3486 216.384 30.0669 216.026 29.7028C215.662 29.3452 215.38 28.9125 215.2 28.4347C215.023 27.979 214.902 27.4582 214.867 26.6966C214.832 25.9317 214.824 25.6882 214.824 23.7437C214.824 21.7986 214.833 21.5551 214.867 20.7922C214.902 20.0292 215.023 19.5084 215.2 19.0528C215.38 18.575 215.662 18.1422 216.027 17.7846C216.384 17.4204 216.817 17.1385 217.294 16.9585C217.75 16.7821 218.271 16.661 219.032 16.6259H219.033ZM224.879 17.9148C224.124 17.8803 223.897 17.8732 221.985 17.8732C220.073 17.8732 219.847 17.8803 219.091 17.9148C218.393 17.9467 218.014 18.0633 217.761 18.1616C217.427 18.2918 217.189 18.446 216.938 18.6967C216.7 18.9278 216.518 19.2092 216.403 19.5202C216.305 19.7727 216.188 20.1516 216.156 20.8501C216.122 21.6053 216.114 21.8318 216.114 23.7437C216.114 25.6557 216.122 25.8822 216.156 26.6374C216.188 27.3359 216.305 27.7147 216.403 27.9673C216.517 28.2778 216.7 28.5597 216.938 28.7908C217.169 29.0284 217.451 29.2113 217.761 29.3259C218.014 29.4242 218.393 29.5407 219.091 29.5726C219.847 29.6071 220.072 29.6143 221.985 29.6143C223.898 29.6143 224.124 29.6071 224.879 29.5726C225.577 29.5407 225.956 29.4242 226.209 29.3259C226.543 29.1957 226.781 29.0414 227.032 28.7908C227.27 28.5597 227.453 28.2778 227.567 27.9673C227.666 27.7147 227.782 27.3359 227.814 26.6374C227.848 25.8822 227.856 25.6557 227.856 23.7437C227.856 21.8318 227.848 21.6053 227.814 20.8501C227.782 20.1516 227.666 19.7727 227.567 19.5202C227.437 19.1862 227.283 18.9473 227.032 18.6967C226.801 18.4591 226.52 18.2763 226.209 18.1616C225.956 18.0633 225.577 17.9467 224.879 17.9148V17.9148ZM221.07 25.9512C221.581 26.1639 222.15 26.1926 222.68 26.0324C223.209 25.8723 223.667 25.5332 223.974 25.0732C224.282 24.6132 224.42 24.0607 224.365 23.5101C224.31 22.9595 224.066 22.445 223.674 22.0544C223.425 21.8048 223.122 21.6136 222.79 21.4947C222.457 21.3758 222.102 21.3321 221.751 21.3668C221.4 21.4014 221.06 21.5136 220.757 21.6952C220.454 21.8768 220.195 22.1233 219.999 22.4169C219.803 22.7106 219.674 23.0441 219.622 23.3935C219.57 23.7429 219.597 24.0994 219.699 24.4374C219.802 24.7754 219.978 25.0865 220.215 25.3482C220.452 25.61 220.744 25.8159 221.07 25.9512ZM219.382 21.1411C219.724 20.7993 220.13 20.5282 220.576 20.3432C221.023 20.1583 221.502 20.0631 221.985 20.0631C222.468 20.0631 222.947 20.1583 223.394 20.3432C223.84 20.5282 224.246 20.7993 224.588 21.1411C224.929 21.4829 225.201 21.8886 225.386 22.3352C225.57 22.7818 225.666 23.2604 225.666 23.7437C225.666 24.2271 225.57 24.7057 225.386 25.1523C225.201 25.5988 224.929 26.0046 224.588 26.3464C223.897 27.0366 222.961 27.4244 221.985 27.4244C221.009 27.4244 220.073 27.0366 219.382 26.3464C218.692 25.6561 218.304 24.7199 218.304 23.7437C218.304 22.7676 218.692 21.8314 219.382 21.1411V21.1411ZM226.482 20.6112C226.567 20.5313 226.635 20.4352 226.681 20.3287C226.728 20.2221 226.753 20.1072 226.755 19.9908C226.757 19.8744 226.735 19.7588 226.691 19.6509C226.648 19.543 226.583 19.445 226.5 19.3627C226.418 19.2803 226.32 19.2153 226.212 19.1716C226.104 19.1278 225.989 19.1061 225.872 19.1078C225.756 19.1095 225.641 19.1346 225.534 19.1815C225.428 19.2284 225.332 19.2962 225.252 19.3809C225.096 19.5456 225.011 19.7644 225.015 19.9908C225.018 20.2172 225.109 20.4334 225.269 20.5935C225.429 20.7537 225.646 20.8451 225.872 20.8484C226.099 20.8517 226.317 20.7666 226.482 20.6112V20.6112Z" fill="white"/>
<circle cx="156.272" cy="22.5136" r="21.7636" stroke="white" stroke-width="1.5"/>
<path d="M165.47 22.5546C165.47 22.5087 165.47 22.4565 165.468 22.3959C165.466 22.2268 165.462 22.0368 165.458 21.8343C165.441 21.2517 165.411 20.6712 165.365 20.1242C165.302 19.3704 165.209 18.7419 165.083 18.27C164.95 17.7776 164.689 17.3284 164.326 16.9675C163.963 16.6066 163.512 16.3466 163.016 16.2134C162.421 16.0547 161.255 15.9565 159.615 15.896C158.835 15.8667 158 15.848 157.165 15.8375C156.873 15.8333 156.601 15.8312 156.357 15.8292H155.739C155.495 15.8312 155.224 15.8333 154.931 15.8375C154.096 15.848 153.261 15.8667 152.481 15.896C150.841 15.9586 149.673 16.0568 149.08 16.2134C148.584 16.3462 148.132 16.6062 147.77 16.9671C147.407 17.3281 147.146 17.7774 147.013 18.27C146.885 18.7419 146.794 19.3704 146.731 20.1242C146.685 20.6712 146.655 21.2517 146.639 21.8343C146.632 22.0368 146.63 22.2268 146.628 22.3959C146.628 22.4565 146.626 22.5087 146.626 22.5546V22.6715C146.626 22.7175 146.626 22.7697 146.628 22.8302C146.63 22.9994 146.634 23.1894 146.639 23.3919C146.655 23.9745 146.685 24.5549 146.731 25.102C146.794 25.8558 146.887 26.4842 147.013 26.9561C147.282 27.9563 148.073 28.7456 149.08 29.0128C149.673 29.1715 150.841 29.2696 152.481 29.3302C153.261 29.3594 154.096 29.3782 154.931 29.3887C155.224 29.3928 155.495 29.3949 155.739 29.397H156.357C156.601 29.3949 156.873 29.3928 157.165 29.3887C158 29.3782 158.835 29.3594 159.615 29.3302C161.255 29.2676 162.423 29.1694 163.016 29.0128C164.023 28.7456 164.814 27.9584 165.083 26.9561C165.212 26.4842 165.302 25.8558 165.365 25.102C165.411 24.5549 165.441 23.9745 165.458 23.3919C165.464 23.1894 165.466 22.9994 165.468 22.8302C165.468 22.7697 165.47 22.7175 165.47 22.6715V22.5546V22.5546ZM163.956 22.6632C163.956 22.707 163.956 22.7551 163.954 22.8114C163.952 22.9743 163.948 23.1539 163.943 23.3481C163.929 23.9035 163.899 24.4589 163.855 24.9746C163.798 25.647 163.718 26.1982 163.619 26.5678C163.489 27.0501 163.106 27.4322 162.623 27.5596C162.181 27.6765 161.068 27.7705 159.556 27.8268C158.791 27.8561 157.966 27.8749 157.144 27.8853C156.856 27.8895 156.589 27.8916 156.349 27.8916H155.747L154.952 27.8853C154.13 27.8749 153.308 27.8561 152.54 27.8268C151.028 27.7684 149.913 27.6765 149.474 27.5596C148.99 27.4301 148.607 27.0501 148.477 26.5678C148.378 26.1982 148.298 25.647 148.241 24.9746C148.197 24.4589 148.17 23.9035 148.153 23.3481C148.147 23.1539 148.144 22.9722 148.142 22.8114C148.142 22.7551 148.14 22.705 148.14 22.6632V22.563C148.14 22.5191 148.14 22.4711 148.142 22.4147C148.144 22.2519 148.149 22.0723 148.153 21.8781C148.168 21.3227 148.197 20.7673 148.241 20.2516C148.298 19.5792 148.378 19.028 148.477 18.6584C148.607 18.1761 148.99 17.794 149.474 17.6666C149.915 17.5497 151.028 17.4557 152.54 17.3993C153.306 17.3701 154.13 17.3513 154.952 17.3409C155.24 17.3367 155.508 17.3346 155.747 17.3346H156.349L157.144 17.3409C157.966 17.3513 158.789 17.3701 159.556 17.3993C161.068 17.4578 162.183 17.5497 162.623 17.6666C163.106 17.7961 163.489 18.1761 163.619 18.6584C163.718 19.028 163.798 19.5792 163.855 20.2516C163.899 20.7673 163.927 21.3227 163.943 21.8781C163.95 22.0723 163.952 22.2539 163.954 22.4147C163.954 22.4711 163.956 22.5212 163.956 22.563V22.6632ZM154.176 25.411L159.056 22.5922L154.176 19.8152V25.411Z" fill="white"/>
</svg>
