<svg width="31" height="31" viewBox="0 0 31 31" fill="none" xmlns="http://www.w3.org/2000/svg">
<path d="M24.4308 17.3761L1.83172 17.249C1.32317 17.2455 0.895074 17.0647 0.54745 16.7066C0.200667 16.3495 0.029042 15.9126 0.0325722 15.3961C0.0361024 14.8796 0.21411 14.4447 0.566594 14.0917C0.918226 13.7394 1.34832 13.5651 1.85687 13.5687L24.4555 13.7603L14.8601 3.87794C14.5023 3.50952 14.3247 3.07779 14.3273 2.58277C14.3315 2.08776 14.515 1.65858 14.8777 1.29524C15.2404 0.931896 15.6655 0.751513 16.1529 0.754089C16.6402 0.758386 17.0628 0.944745 17.4205 1.31317L30.0461 14.3163C30.4038 14.6847 30.581 15.116 30.5776 15.6102C30.5742 16.106 30.3912 16.5357 30.0284 16.899L17.2263 29.7228C16.8636 30.0862 16.4386 30.2657 15.9512 30.2614C15.4638 30.2588 15.0413 30.0733 14.6836 29.7049C14.3258 29.3365 14.1491 28.9048 14.1533 28.4098C14.1558 27.9147 14.3385 27.4856 14.7012 27.1222L24.4308 17.3761Z" fill="white"/>
</svg>
