<svg width="31" height="31" viewBox="0 0 31 31" fill="none" xmlns="http://www.w3.org/2000/svg">
<path d="M24.8512 17.5458L2.25213 17.4187C1.74358 17.4151 1.31548 17.2343 0.96786 16.8763C0.621077 16.5192 0.449452 16.0823 0.452982 15.5658C0.456513 15.0492 0.63452 14.6144 0.987004 14.2613C1.33864 13.9091 1.76873 13.7348 2.27728 13.7384L24.8759 13.93L15.2805 4.04761C14.9227 3.67919 14.7452 3.24747 14.7477 2.75245C14.7519 2.25744 14.9354 1.82826 15.2981 1.46492C15.6609 1.10157 16.0859 0.921191 16.5733 0.923766C17.0606 0.928064 17.4832 1.11442 17.8409 1.48284L30.4665 14.486C30.8242 14.8544 31.0014 15.2857 30.998 15.7798C30.9946 16.2757 30.8116 16.7053 30.4488 17.0687L17.6467 29.8925C17.284 30.2559 16.859 30.4354 16.3716 30.4311C15.8842 30.4285 15.4617 30.243 15.104 29.8746C14.7462 29.5062 14.5695 29.0745 14.5737 28.5794C14.5763 28.0844 14.7589 27.6552 15.1216 27.2919L24.8512 17.5458Z" fill="white"/>
</svg>
