<svg width="16" height="17" viewBox="0 0 16 17" fill="none" xmlns="http://www.w3.org/2000/svg">
<circle cx="23.2724" cy="23.8386" r="21.7636" stroke="white" stroke-width="1.5"/>
<path fill-rule="evenodd" clip-rule="evenodd" d="M0.161133 2.15205C0.161133 1.80131 0.293828 1.46494 0.530026 1.21693C0.766225 0.968921 1.08658 0.829592 1.42061 0.829592H13.9757C14.1412 0.829308 14.3052 0.86331 14.4582 0.929651C14.6112 0.995992 14.7502 1.09337 14.8673 1.21621C14.9845 1.33905 15.0774 1.48494 15.1407 1.64552C15.2041 1.8061 15.2366 1.97823 15.2365 2.15205V15.3349C15.2367 15.5087 15.2042 15.6809 15.141 15.8415C15.0777 16.0022 14.9849 16.1482 14.8679 16.2712C14.7508 16.3941 14.6118 16.4916 14.4589 16.5582C14.3059 16.6247 14.1419 16.6588 13.9764 16.6588H1.42061C1.25516 16.6588 1.09132 16.6245 0.938473 16.558C0.785621 16.4915 0.646746 16.394 0.529784 16.2712C0.412821 16.1483 0.320063 16.0024 0.256808 15.8419C0.193554 15.6813 0.161043 15.5093 0.161133 15.3356V2.15205ZM6.12825 6.86482H8.16959V7.9412C8.46425 7.32242 9.21802 6.76553 10.3507 6.76553C12.5223 6.76553 13.0369 7.99804 13.0369 10.2595V14.4484H10.8393V10.7746C10.8393 9.4867 10.5447 8.76 9.79636 8.76C8.75822 8.76 8.32651 9.54354 8.32651 10.7746V14.4484H6.12825V6.86482ZM2.3594 14.3499H4.55767V6.76553H2.3594V14.3491V14.3499ZM4.87219 4.29186C4.87634 4.48949 4.84284 4.686 4.77368 4.86985C4.70452 5.0537 4.60108 5.2212 4.46943 5.36251C4.33778 5.50382 4.18057 5.61609 4.00704 5.69275C3.83351 5.7694 3.64714 5.80888 3.45887 5.80888C3.27061 5.80888 3.08424 5.7694 2.91071 5.69275C2.73718 5.61609 2.57997 5.50382 2.44832 5.36251C2.31667 5.2212 2.21323 5.0537 2.14407 4.86985C2.0749 4.686 2.04141 4.48949 2.04556 4.29186C2.05369 3.90394 2.20617 3.53479 2.47033 3.26346C2.73449 2.99213 3.08934 2.8402 3.45887 2.8402C3.82841 2.8402 4.18326 2.99213 4.44742 3.26346C4.71158 3.53479 4.86406 3.90394 4.87219 4.29186Z" fill="white"/>
</svg>
