<svg width="31" height="31" viewBox="0 0 31 31" fill="none" xmlns="http://www.w3.org/2000/svg">
<path d="M24.8507 17.5458L2.25164 17.4187C1.74309 17.4151 1.315 17.2343 0.967372 16.8763C0.620589 16.5192 0.448964 16.0823 0.452494 15.5658C0.456024 15.0492 0.634032 14.6144 0.986515 14.2613C1.33815 13.9091 1.76824 13.7348 2.27679 13.7384L24.8754 13.93L15.28 4.04761C14.9223 3.67919 14.7447 3.24747 14.7472 2.75245C14.7514 2.25744 14.9349 1.82826 15.2976 1.46492C15.6604 1.10157 16.0854 0.921191 16.5728 0.923766C17.0601 0.928064 17.4827 1.11442 17.8404 1.48284L30.466 14.486C30.8237 14.8544 31.0009 15.2857 30.9975 15.7798C30.9941 16.2757 30.8111 16.7053 30.4483 17.0687L17.6462 29.8925C17.2835 30.2559 16.8585 30.4354 16.3711 30.4311C15.8837 30.4285 15.4612 30.243 15.1035 29.8746C14.7457 29.5062 14.569 29.0745 14.5732 28.5794C14.5758 28.0844 14.7584 27.6552 15.1211 27.2919L24.8507 17.5458Z" fill="white"/>
</svg>
