<svg width="23" height="21" viewBox="0 0 23 21" fill="none" xmlns="http://www.w3.org/2000/svg">
<path d="M17.8158 11.6478L1.81465 11.5592C1.45457 11.5567 1.15146 11.4306 0.90533 11.1811C0.659792 10.9321 0.538274 10.6276 0.540773 10.2675C0.543273 9.90742 0.66931 9.60431 0.918885 9.35818C1.16786 9.11264 1.47238 8.99112 1.83246 8.99362L17.8333 9.1272L11.0393 2.23821C10.786 1.98138 10.6603 1.68043 10.6621 1.33535C10.6651 0.990279 10.795 0.691101 11.0518 0.437816C11.3086 0.18453 11.6096 0.0587857 11.9547 0.060581C12.2997 0.0635766 12.5989 0.193487 12.8522 0.450314L21.7917 9.51477C22.045 9.7716 22.1704 10.0723 22.168 10.4167C22.1656 10.7624 22.036 11.0619 21.7792 11.3152L12.7147 20.2547C12.4579 20.5079 12.1569 20.6331 11.8119 20.6301C11.4668 20.6283 11.1676 20.499 10.9143 20.2422C10.661 19.9853 10.5359 19.6844 10.5389 19.3393C10.5407 18.9942 10.67 18.695 10.9268 18.4418L17.8158 11.6478Z" fill="white"/>
</svg>
